# xmcd
#
# Track frame offsets:
#	180
#	9634
#	19644
#	28880
#	38407
#	48396
#	60410
#	68316
#	79219
#	89956
#	97764
#	105652
#
# Disc length: 1607 seconds
#
# Revision: 1
# Processed by: cddbd v1.4PL0 Copyright (c) Steve Scherf et al.
# Submitted via: EasyCDDAExtractor 5.0.7
#
DISCID=8806450c
DTITLE=Shannon Steele - I've Got Peace Like A River
DYEAR=1996
DGENRE=gospel
TTITLE0=I've Got Peace Like A River
TTITLE1=Brethren We Have Met To Worship
TTITLE2=Everybody Ought To Know
TTITLE3=Let's Talk About Jesus-I WIll Sing Of The Mercies Of The Lord
TTITLE4=Come Thou Fount
TTITLE5=Take My Life And Let It Be
TTITLE6=Isn't He Wonderful-Go Tell It On The Mountain
TTITLE7=Brighten The Corner
TTITLE8=Oh How I Love Jesus
TTITLE9=Something Better Than Going To Heaven
TTITLE10=Friendship With Jesus
TTITLE11=Ford Jesus Is Heaven To Me
EXTD=
EXTT0=
EXTT1=
EXTT2=
EXTT3=
EXTT4=
EXTT5=
EXTT6=
EXTT7=
EXTT8=
EXTT9=
EXTT10=
EXTT11=
PLAYORDER=
